<svg width="24" height="19" viewBox="0 0 24 19" fill="none" xmlns="http://www.w3.org/2000/svg">
<g clip-path="url(#clip0_2006_5)">
<path d="M4.5 0.870117L19.5 17.3701" stroke="#484848" stroke-width="1.5" stroke-linecap="round" stroke-linejoin="round"/>
<path d="M14.5215 11.8947C13.8333 12.5252 12.9329 12.8733 11.9996 12.8697C11.2427 12.8696 10.5036 12.6405 9.87935 12.2125C9.25512 11.7845 8.77502 11.1776 8.50216 10.4716C8.2293 9.76564 8.17646 8.99361 8.35058 8.25703C8.5247 7.52046 8.91764 6.85381 9.47773 6.34473" stroke="#484848" stroke-width="1.5" stroke-linecap="round" stroke-linejoin="round"/>
<path d="M6.9375 3.55078C3.1125 5.48203 1.5 9.11953 1.5 9.11953C1.5 9.11953 4.5 15.8695 12 15.8695C13.7574 15.8839 15.4929 15.4789 17.0625 14.6883" stroke="#484848" stroke-width="1.5" stroke-linecap="round" stroke-linejoin="round"/>
<path d="M19.5564 12.9733C21.6002 11.1451 22.5002 9.12014 22.5002 9.12014C22.5002 9.12014 19.5002 2.37014 12.0002 2.37014C11.35 2.36886 10.7008 2.42217 10.0596 2.52951" stroke="#484848" stroke-width="1.5" stroke-linecap="round" stroke-linejoin="round"/>
<path d="M12.7031 5.43555C13.5006 5.58665 14.2273 5.99304 14.7735 6.5934C15.3198 7.19376 15.6559 7.9555 15.7313 8.76367" stroke="#484848" stroke-width="1.5" stroke-linecap="round" stroke-linejoin="round"/>
</g>
<defs>
<clipPath id="clip0_2006_5">
<rect width="24" height="19" fill="white"/>
</clipPath>
</defs>
</svg>
