<svg width="16" height="16" viewBox="0 0 16 16" fill="none" xmlns="http://www.w3.org/2000/svg">
<path d="M12.0599 6.81333L7.39322 14.4267C7.30164 14.5746 7.14055 14.6652 6.96655 14.6667H6.83322C6.73984 14.6665 6.65064 14.6279 6.58655 14.56C6.52279 14.4918 6.49125 14.3996 6.49988 14.3067L6.87322 10H4.49322C4.31415 9.99807 4.14941 9.90176 4.05988 9.74667L3.93322 9.52667C3.86959 9.42227 3.86959 9.29107 3.93322 9.18667L8.59988 1.57333C8.69394 1.42131 8.86115 1.33011 9.03988 1.33333H9.17322C9.2666 1.33351 9.3558 1.37208 9.41988 1.44C9.48364 1.50818 9.51519 1.60039 9.50655 1.69333L9.12655 6H11.5066C11.6856 6.00193 11.8504 6.09825 11.9399 6.25333L12.0666 6.47333C12.1281 6.57898 12.1256 6.71018 12.0599 6.81333Z" fill="black"/>
</svg>
