<svg width="20" height="16" viewBox="0 0 20 16" fill="none" xmlns="http://www.w3.org/2000/svg">
<g clip-path="url(#clip0_2001_4)">
<path d="M19.2308 0H0.769231C0.565218 0 0.369561 0.0810439 0.225302 0.225303C0.0810437 0.369561 0 0.565218 0 0.769231V13.8462C0 14.2542 0.162087 14.6455 0.450605 14.934C0.739122 15.2225 1.13044 15.3846 1.53846 15.3846H18.4615C18.8696 15.3846 19.2609 15.2225 19.5494 14.934C19.8379 14.6455 20 14.2542 20 13.8462V0.769231C20 0.565218 19.919 0.369561 19.7747 0.225303C19.6304 0.0810439 19.4348 0 19.2308 0ZM17.2529 1.53846L10 8.1875L2.74712 1.53846H17.2529ZM18.4615 13.8462H1.53846V2.51827L9.47981 9.79808C9.62172 9.92835 9.80736 10.0006 10 10.0006C10.1926 10.0006 10.3783 9.92835 10.5202 9.79808L18.4615 2.51827V13.8462Z" fill="#484848"/>
</g>
<defs>
<clipPath id="clip0_2001_4">
<rect width="20" height="15.3846" fill="white"/>
</clipPath>
</defs>
</svg>
