<svg width="17" height="20" viewBox="0 0 17 20" fill="none" xmlns="http://www.w3.org/2000/svg">
<g clip-path="url(#clip0_2001_2)">
<path d="M8.5 9.20833C7.90464 9.20853 7.32924 9.42297 6.87896 9.81245C6.42868 10.2019 6.1336 10.7404 6.04764 11.3296C5.96169 11.9187 6.0906 12.5191 6.41082 13.021C6.73105 13.5229 7.22119 13.8928 7.79167 14.0631V15.5833C7.79167 15.7712 7.86629 15.9514 7.99913 16.0842C8.13197 16.217 8.31214 16.2917 8.5 16.2917C8.68786 16.2917 8.86803 16.217 9.00087 16.0842C9.13371 15.9514 9.20833 15.7712 9.20833 15.5833V14.0631C9.77881 13.8928 10.269 13.5229 10.5892 13.021C10.9094 12.5191 11.0383 11.9187 10.9524 11.3296C10.8664 10.7404 10.5713 10.2019 10.121 9.81245C9.67076 9.42297 9.09535 9.20853 8.5 9.20833ZM8.5 12.75C8.28986 12.75 8.08443 12.6877 7.90971 12.5709C7.73498 12.4542 7.5988 12.2882 7.51838 12.0941C7.43796 11.9 7.41692 11.6863 7.45792 11.4802C7.49891 11.2741 7.60011 11.0848 7.7487 10.9362C7.89729 10.7876 8.08661 10.6864 8.29272 10.6454C8.49882 10.6044 8.71245 10.6255 8.9066 10.7059C9.10075 10.7863 9.26669 10.9225 9.38344 11.0972C9.50018 11.2719 9.5625 11.4774 9.5625 11.6875C9.5625 11.9693 9.45056 12.2395 9.2513 12.4388C9.05204 12.6381 8.78179 12.75 8.5 12.75ZM15.5833 6.375H12.75V4.25C12.75 3.12283 12.3022 2.04183 11.5052 1.2448C10.7082 0.447767 9.62717 0 8.5 0C7.37283 0 6.29183 0.447767 5.4948 1.2448C4.69777 2.04183 4.25 3.12283 4.25 4.25V6.375H1.41667C1.04094 6.375 0.680609 6.52426 0.414932 6.78993C0.149255 7.05561 0 7.41594 0 7.79167V17.7083C0 18.0841 0.149255 18.4444 0.414932 18.7101C0.680609 18.9757 1.04094 19.125 1.41667 19.125H15.5833C15.9591 19.125 16.3194 18.9757 16.5851 18.7101C16.8507 18.4444 17 18.0841 17 17.7083V7.79167C17 7.41594 16.8507 7.05561 16.5851 6.78993C16.3194 6.52426 15.9591 6.375 15.5833 6.375ZM5.66667 4.25C5.66667 3.49855 5.96518 2.77788 6.49653 2.24653C7.02788 1.71518 7.74855 1.41667 8.5 1.41667C9.25145 1.41667 9.97212 1.71518 10.5035 2.24653C11.0348 2.77788 11.3333 3.49855 11.3333 4.25V6.375H5.66667V4.25ZM15.5833 17.7083H1.41667V7.79167H15.5833V17.7083Z" fill="#484848"/>
</g>
<defs>
<clipPath id="clip0_2001_2">
<rect width="17" height="19.125" fill="white"/>
</clipPath>
</defs>
</svg>
