<svg width="250" height="250" viewBox="0 0 250 250" fill="none" xmlns="http://www.w3.org/2000/svg">
<rect width="250" height="250" fill="#DBDBDB"/>
<path fill-rule="evenodd" clip-rule="evenodd" d="M175 95C175 89.4772 170.523 85 165 85H85C79.4772 85 75 89.4772 75 95V155C75 160.523 79.4772 165 85 165H165C170.523 165 175 160.523 175 155V95ZM112.5 100C116.642 100 120 103.358 120 107.5C120 111.642 116.642 115 112.5 115C108.358 115 105 111.642 105 107.5C105 103.358 108.358 100 112.5 100ZM157.5 150C158.881 150 160 148.881 160 147.5V145.8C159.997 145.26 159.821 144.734 159.5 144.3L138.25 115.95C137.766 115.339 137.03 114.982 136.25 114.982C135.47 114.982 134.734 115.339 134.25 115.95L119.85 134.55C119.373 135.173 118.635 135.542 117.85 135.55C117.114 135.551 116.416 135.22 115.95 134.65L108.7 125.9C108.219 125.322 107.502 124.991 106.75 125C106.064 125.072 105.434 125.414 105 125.95L90.55 144.3C90.1934 144.718 89.9982 145.25 90 145.8V147.5C90 148.881 91.1193 150 92.5 150H157.5Z" fill="black" fill-opacity="0.15"/>
</svg>
